# xmcd
#
# Track frame offsets:
#	187
#	20800
#	43797
#	73290
#	102250
#	131710
#	161137
#
# Disc length: 2540 seconds
#
# Revision: 1
# Processed by: cddbd v1.5.2PL0 Copyright (c) Steve Scherf et al.
# Submitted via: audiograbber 1.83.01
#
DISCID=6809ea07
DTITLE=Aaron Hall - Let's Make Love (Promo CDM)
DYEAR=1993
DGENRE=R&B
TTITLE0=Let's Make Love (Single Edit)
TTITLE1=Let's Make Love (Radio Edit)
TTITLE2=Let's Make Love (Album Version)
TTITLE3=Let's Make Love (Acappella)
TTITLE4=Let's Make Love (Percussapella)
TTITLE5=Let's Make Love (Instrumental)
TTITLE6=Let's Make Love (Suite)
EXTD=
EXTT0=
EXTT1=
EXTT2=
EXTT3=
EXTT4=
EXTT5=
EXTT6=
PLAYORDER=
